<svg xmlns="http://www.w3.org/2000/svg" viewBox="0 0 512 512" fill="none">
  <g stroke="#163b88" stroke-width="18" stroke-linecap="round" stroke-linejoin="round">
    <circle cx="256" cy="256" r="176" opacity="0.75"/>
    <circle cx="256" cy="256" r="132" opacity="0.75"/>

    <path d="M190 196H322L374 238H138L190 196Z"/>
    <path d="M138 238L256 342L374 238"/>
    <path d="M190 196L219 238L256 196L293 238L322 196"/>
    <path d="M219 238L256 342L293 238"/>

    <line x1="256" y1="36" x2="256" y2="128" opacity="0.65"/>
    <line x1="256" y1="384" x2="256" y2="476" opacity="0.65"/>
    <line x1="36" y1="256" x2="128" y2="256" opacity="0.65"/>
    <line x1="384" y1="256" x2="476" y2="256" opacity="0.65"/>
  </g>

  <g fill="#163b88">
    <path d="M256 62L241 36L256 10L271 36L256 62Z"/>
    <path d="M256 502L241 476L256 450L271 476L256 502Z"/>
    <path d="M62 256L36 241L10 256L36 271L62 256Z"/>
    <path d="M502 256L476 241L450 256L476 271L502 256Z"/>
    <circle cx="156" cy="168" r="10"/>
    <circle cx="348" cy="168" r="8"/>
    <circle cx="372" cy="218" r="10"/>
    <circle cx="142" cy="310" r="8"/>
    <circle cx="352" cy="336" r="10"/>
  </g>
</svg>
